<?xml version="1.0" encoding="UTF-8" standalone="no"?>
<!-- Created with Inkscape (http://www.inkscape.org/) -->

<svg
   xmlns:dc="http://purl.org/dc/elements/1.1/"
   xmlns:cc="http://creativecommons.org/ns#"
   xmlns:rdf="http://www.w3.org/1999/02/22-rdf-syntax-ns#"
   xmlns:svg="http://www.w3.org/2000/svg"
   xmlns="http://www.w3.org/2000/svg"
   xmlns:xlink="http://www.w3.org/1999/xlink"
   xmlns:sodipodi="http://sodipodi.sourceforge.net/DTD/sodipodi-0.dtd"
   xmlns:inkscape="http://www.inkscape.org/namespaces/inkscape"
   width="210mm"
   height="297mm"
   viewBox="0 0 210 297"
   version="1.1"
   id="svg8"
   inkscape:version="0.92.3 (2405546, 2018-03-11)"
   sodipodi:docname="drawing.svg">
  <defs
     id="defs2" />
  <sodipodi:namedview
     id="base"
     pagecolor="#ffffff"
     bordercolor="#666666"
     borderopacity="1.0"
     inkscape:pageopacity="0.0"
     inkscape:pageshadow="2"
     inkscape:zoom="1.4"
     inkscape:cx="235.6847"
     inkscape:cy="813.64545"
     inkscape:document-units="mm"
     inkscape:current-layer="layer1"
     showgrid="false"
     inkscape:window-width="1920"
     inkscape:window-height="1016"
     inkscape:window-x="0"
     inkscape:window-y="1227"
     inkscape:window-maximized="1" />
  <metadata
     id="metadata5">
    <rdf:RDF>
      <cc:Work
         rdf:about="">
        <dc:format>image/svg+xml</dc:format>
        <dc:type
           rdf:resource="http://purl.org/dc/dcmitype/StillImage" />
        <dc:title></dc:title>
      </cc:Work>
    </rdf:RDF>
  </metadata>
  <g
     inkscape:label="Layer 1"
     inkscape:groupmode="layer"
     id="layer1">
    <text
       xml:space="preserve"
       style="font-style:normal;font-weight:normal;font-size:10.06479263px;line-height:1.25;font-family:sans-serif;letter-spacing:0px;word-spacing:0px;fill:#d113d1;fill-opacity:1;stroke:none;stroke-width:0.25161979"
       id="text821"><textPath
         xlink:href="#path829"
         id="textPath831"><tspan
   style="font-style:normal;font-variant:normal;font-weight:bold;font-stretch:normal;font-family:Dyuthi;-inkscape-font-specification:'Dyuthi Bold';fill:#d113d1;fill-opacity:1;stroke-width:0.25161979"
   id="tspan819">NÉZD MEG!</tspan></textPath></text>
    <path
       style="fill:none;stroke:#000000;stroke-width:0.26458332px;stroke-linecap:butt;stroke-linejoin:miter;stroke-opacity:1"
       d="M 97.895832,56.607141 C 115.21048,36.355985 133.93897,37.181939 150.62351,56.985119 Z"
       id="path823"
       inkscape:connector-curvature="0"
       sodipodi:nodetypes="ccc" />
    <path
       style="fill:none;stroke:#000000;stroke-width:0.26458332px;stroke-linecap:butt;stroke-linejoin:miter;stroke-opacity:1"
       d="M 74.461308,88.168153 Z"
       id="path825"
       inkscape:connector-curvature="0" />
    <path
       style="fill:#d4ff2a;stroke:#000000;stroke-width:0.2504991px;stroke-linecap:butt;stroke-linejoin:miter;stroke-opacity:1"
       d="m 39.115026,95.734506 c 24.966989,-19.390545 60.483079,-8.396021 53.872632,0"
       id="path829"
       inkscape:connector-curvature="0"
       sodipodi:nodetypes="cc" />
    <path
       style="fill:#d4ff2a;fill-opacity:1;stroke:#987877;stroke-width:5.39932537;stroke-linecap:round;stroke-linejoin:round;stroke-miterlimit:4;stroke-dasharray:none;stroke-dashoffset:0;stroke-opacity:1"
       d="m 150.39899,360.98233 c 0,-0.63813 17.03716,-11.68995 23.19743,-15.04792 19.31525,-10.52875 42.68597,-18.26947 65.79772,-21.79315 19.02477,-2.90057 45.35147,-2.71284 63.93429,0.45591 16.50707,2.81479 35.46047,10.19251 42.96834,16.72568 6.56593,5.71352 8.78581,12.26326 5.98494,17.65853 l -1.20512,2.32143 h -100.3388 c -55.18634,0 -100.3388,-0.14422 -100.3388,-0.32048 z"
       id="path834"
       inkscape:connector-curvature="0"
       transform="scale(0.26458333)" />
    <path
       style="fill:#d4ff2a;fill-opacity:1;stroke:#987877;stroke-width:5.39932537;stroke-linecap:round;stroke-linejoin:round;stroke-miterlimit:4;stroke-dasharray:none;stroke-dashoffset:0;stroke-opacity:1"
       d="m 160.07756,357.85363 c 2.04391,-1.78325 13.18455,-8.35165 19.98971,-11.78572 19.17801,-9.67775 41.32797,-16.43582 63.90314,-19.49718 10.84732,-1.47098 38.09805,-1.66154 49.28572,-0.34464 20.3509,2.39549 42.43535,9.97259 51.27463,17.59215 4.71879,4.06765 6.93813,9.57961 5.43466,13.49758 -0.39235,1.02244 -9.47076,1.12984 -95.5,1.12984 -52.28654,0 -94.76108,-0.26641 -94.38786,-0.59203 z"
       id="path836"
       inkscape:connector-curvature="0"
       transform="scale(0.26458333)" />
    <path
       style="fill:#d4ff2a;fill-opacity:1;stroke:#987877;stroke-width:5.39932537;stroke-linecap:round;stroke-linejoin:round;stroke-miterlimit:4;stroke-dasharray:none;stroke-dashoffset:0;stroke-opacity:1"
       d="m 176.47041,354.94213 -5.71428,-0.42504 6.78571,-3.68587 c 19.77328,-10.74046 47.91317,-19.36571 70.6114,-21.64331 9.61667,-0.96496 35.37982,-0.95343 44.23818,0.0198 19.06547,2.09464 41.74697,9.65924 49.83605,16.62101 2.94051,2.53072 5.97589,7.90757 5.00976,8.87423 -0.62789,0.62823 -162.48857,0.85494 -170.76682,0.23918 z"
       id="path838"
       inkscape:connector-curvature="0"
       transform="scale(0.26458333)" />
    <path
       style="fill:#d4ff2a;fill-opacity:1;stroke:#987877;stroke-width:5.39932537;stroke-linecap:round;stroke-linejoin:round;stroke-miterlimit:4;stroke-dasharray:none;stroke-dashoffset:0;stroke-opacity:1"
       d="m 188.61327,348.78204 c 9.31174,-4.50422 30.72149,-11.41059 43.13923,-13.91586 23.19391,-4.67937 54.08716,-4.80091 74.19144,-0.29189 17.5252,3.93058 33.99266,11.14629 36.61344,16.04326 0.74186,1.38619 -0.0196,1.39894 -79.81184,1.33682 l -80.56084,-0.0627 z"
       id="path840"
       inkscape:connector-curvature="0"
       transform="scale(0.26458333)" />
    <path
       style="fill:#d4ff2a;fill-opacity:1;stroke:#987877;stroke-width:5.39932537;stroke-linecap:round;stroke-linejoin:round;stroke-miterlimit:4;stroke-dasharray:none;stroke-dashoffset:0;stroke-opacity:1"
       d="m 156.37255,362.37677 c -0.26701,-0.69581 -1.37067,-1.07396 -3.13442,-1.07396 -3.11941,0 -4.982,-0.57166 -4.982,-1.52905 0,-1.12367 18.33476,-12.73005 28.17148,-17.83327 19.69265,-10.21641 42.24088,-17.26438 66.47138,-20.77714 9.98153,-1.44706 46.42813,-1.21407 56.36235,0.36029 20.3654,3.22748 41.38487,11.21559 49.13795,18.67408 7.03524,6.76791 9.07957,13.79568 5.83295,20.05185 l -1.47328,2.83895 -97.98715,0.18111 c -86.65503,0.16016 -98.0348,0.0569 -98.39926,-0.89286 z m 167.95501,-13.1274 12.85714,-0.44656 -5.24276,-2.71988 c -18.00981,-9.34326 -45.58866,-13.82394 -73.68581,-11.9716 -20.21412,1.33264 -35.28489,4.50842 -55.29828,11.6527 l -8.51256,3.03878 19.58399,0.37445 c 28.57206,0.54632 95.38761,0.59 110.29828,0.0721 z"
       id="path842"
       inkscape:connector-curvature="0"
       transform="scale(0.26458333)" />
    <path
       style="fill:#d4ff2a;fill-opacity:1;stroke:#987877;stroke-width:5.39932537;stroke-linecap:round;stroke-linejoin:round;stroke-miterlimit:4;stroke-dasharray:none;stroke-dashoffset:0;stroke-opacity:1"
       d="m 206.54697,351.35944 c -11.74041,-0.35998 -13.59612,-0.57455 -14.27361,-1.65037 -0.5912,-0.93882 -0.52364,-1.48192 0.28059,-2.25532 1.34179,-1.29037 20.12609,-7.76157 29.18691,-10.05492 31.55081,-7.98569 65.63971,-8.08358 93.62933,-0.26887 8.39557,2.34404 23.37177,9.17494 24.06266,10.97538 0.25274,0.65863 -0.0722,1.68485 -0.74718,2.36 -1.09611,1.09631 -6.02641,1.19927 -59.91911,1.25124 -32.29859,0.0311 -64.79741,-0.12957 -72.21959,-0.35714 z m 119.5663,-4.96989 c 0,-1.03073 -14.77552,-5.59979 -23.21428,-7.17859 -11.71171,-2.19114 -19.47733,-2.89579 -31.9846,-2.90229 -12.49028,-0.007 -28.10007,1.43038 -38.18387,3.51482 -9.11485,1.88414 -23.04582,5.87095 -23.04582,6.59532 0,0.32905 26.19643,0.59828 58.21429,0.59828 32.96854,0 58.21428,-0.27214 58.21428,-0.62754 z"
       id="path844"
       inkscape:connector-curvature="0"
       transform="scale(0.26458333)" />
  </g>
</svg>
